<svg xmlns="http://www.w3.org/2000/svg" width="50" height="50" xmlns:v="https://vecta.io/nano"><style><![CDATA[.B{fill-rule:evenodd}.C{fill:#e4761b}.D{fill:#cd6116}.E{fill:#e4751f}]]></style><circle cx="25" cy="25" r="25" fill="#fff"/><g fill="#c0ad9e" class="B"><path d="M18.745 35.948l3.832 1.017v-1.329l.313-.313h2.189v2.659h-2.346l-2.893-1.251z"/><path d="M31.256 35.947l-3.753 1.017v-1.33l-.313-.313H25v2.659h2.346l2.893-1.251z"/></g><path d="M22.889 33.054l-.313 2.58.391-.313h4.066l.469.313-.313-2.58-.626-.391-3.128.078z" fill="#161616" class="B"/><path d="M20.778 15.617l1.877 4.379.86 12.746h3.05l.938-12.746 1.72-4.379zm-8.211 9.618l-2.189 6.334 5.474-.313h3.518v-2.737l-.155-5.63-.782.626z" fill="#f6851b" class="B"/><path d="M16.712 25.938l6.412.156-.7 3.284-3.05-.782z" class="B D"/><path d="M16.712 26.017l2.659 2.5v2.5z" class="B E"/><path d="M19.37 28.597l3.128.782 1.017 3.362-.7.391-3.441-2.033z" fill="#f6851b" class="B"/><path d="M19.371 31.099l-.626 4.848 4.144-2.893z" class="B C"/><path d="M23.124 26.095l.391 6.647-1.173-3.4z" class="B E"/><path d="M15.773 31.177l3.6-.078-.626 4.848z" class="B D"/><path d="M12.098 38.058l6.646-2.111-2.971-4.77-5.4.391z" fill="#e4761a" class="B"/><path d="M22.655 19.996l-3.362 2.815-2.58 3.128 6.412.235z" class="B C"/><path d="M18.745 35.947l4.144-2.893-.313 2.5v1.408l-2.815-.547zm12.511 0l-4.066-2.893.313 2.5v1.41l2.815-.547z" fill="#d7c1b3" class="B"/><path d="M21.404 27.501l.86 1.8-3.05-.782z" fill="#393939" class="B"/><path d="M12.02 11.942l10.634 8.054-1.8-4.379z" class="B C"/><path d="M12.02 11.942l-1.407 4.3.782 4.692-.547.313.782.7-.626.547.86.782-.547.469 1.246 1.568 5.865-1.8c1.469-1.097 2.878-2.271 4.222-3.519q-.073-.077-10.63-8.052z" fill="#763d16" class="B"/><g transform="matrix(-1 0 0 -1 39.623 38.058)" class="B"><path d="M2.189 12.824L0 6.49l5.474.313h3.518V9.54l-.156 5.63-.782-.626z" fill="#f7851b"/><path d="M6.334 12.121l6.412-.156-.704-3.285-3.049.782z" class="D"/><path d="M6.334 12.037l2.659-2.5v-2.5z" fill="#e4741e"/><path d="M8.992 9.461l3.128-.782 1.016-3.362-.703-.391-3.441 2.033z" fill="#f7851b"/><path d="M8.993 6.959l-.626-4.848 4.066 2.815z" class="C"/><path d="M12.746 11.964l.391-6.647-1.173 3.4z" class="E"/><path d="M5.395 6.881l3.6.078-.629-4.848z" class="D"/><path d="M1.72 0l6.647 2.111L5.4 6.881 0 6.49zm10.557 18.063l-3.363-2.815-2.58-3.127 6.412-.235z" class="C"/><path d="M11.026 10.556l.86-1.8-3.05.782z" fill="#393939"/><path d="M1.642 26.117l10.634-8.054-1.8 4.379z" fill="#e2761b"/><path d="M1.642 26.117l-1.407-4.3.782-4.692-.547-.313.782-.7-.626-.551.86-.782-.551-.469 1.255-1.564 5.864 1.8c1.469 1.097 2.878 2.271 4.222 3.519q-.077.081-10.634 8.052z" fill="#763d16"/></g></svg>